<?xml version="1.0" encoding="utf-8" standalone="no"?>
<!DOCTYPE svg PUBLIC "-//W3C//DTD SVG 1.1//EN"
  "http://www.w3.org/Graphics/SVG/1.1/DTD/svg11.dtd">
<svg xmlns:xlink="http://www.w3.org/1999/xlink" width="1296pt" height="720pt" viewBox="0 0 1296 720" xmlns="http://www.w3.org/2000/svg" version="1.1">
 <metadata>
  <rdf:RDF xmlns:dc="http://purl.org/dc/elements/1.1/" xmlns:cc="http://creativecommons.org/ns#" xmlns:rdf="http://www.w3.org/1999/02/22-rdf-syntax-ns#">
   <cc:Work>
    <dc:type rdf:resource="http://purl.org/dc/dcmitype/StillImage"/>
    <dc:date>2023-07-01T13:17:10.276220</dc:date>
    <dc:format>image/svg+xml</dc:format>
    <dc:creator>
     <cc:Agent>
      <dc:title>Matplotlib v3.7.1, https://matplotlib.org/</dc:title>
     </cc:Agent>
    </dc:creator>
   </cc:Work>
  </rdf:RDF>
 </metadata>
 <defs>
  <style type="text/css">*{stroke-linejoin: round; stroke-linecap: butt}</style>
 </defs>
 <g id="figure_1">
  <g id="patch_1">
   <path d="M 0 720 
L 1296 720 
L 1296 0 
L 0 0 
L 0 720 
z
" style="fill: none"/>
  </g>
  <g id="axes_1">
   <g id="patch_2">
    <path d="M 162 640.8 
L 1166.4 640.8 
L 1166.4 86.4 
L 162 86.4 
L 162 640.8 
z
" style="fill: none"/>
   </g>
   <g id="patch_3">
    <path d="M 207.654545 640.8 
L 213.741818 640.8 
L 213.741818 639.873684 
L 207.654545 639.873684 
z
" clip-path="url(#p52cc32056f)" style="opacity: 0.7"/>
   </g>
   <g id="patch_4">
    <path d="M 213.741818 640.8 
L 219.829091 640.8 
L 219.829091 639.873684 
L 213.741818 639.873684 
z
" clip-path="url(#p52cc32056f)" style="opacity: 0.7"/>
   </g>
   <g id="patch_5">
    <path d="M 219.829091 640.8 
L 225.916364 640.8 
L 225.916364 640.8 
L 219.829091 640.8 
z
" clip-path="url(#p52cc32056f)" style="opacity: 0.7"/>
   </g>
   <g id="patch_6">
    <path d="M 225.916364 640.8 
L 232.003636 640.8 
L 232.003636 639.873684 
L 225.916364 639.873684 
z
" clip-path="url(#p52cc32056f)" style="opacity: 0.7"/>
   </g>
   <g id="patch_7">
    <path d="M 232.003636 640.8 
L 238.090909 640.8 
L 238.090909 640.8 
L 232.003636 640.8 
z
" clip-path="url(#p52cc32056f)" style="opacity: 0.7"/>
   </g>
   <g id="patch_8">
    <path d="M 238.090909 640.8 
L 244.178182 640.8 
L 244.178182 640.8 
L 238.090909 640.8 
z
" clip-path="url(#p52cc32056f)" style="opacity: 0.7"/>
   </g>
   <g id="patch_9">
    <path d="M 244.178182 640.8 
L 250.265455 640.8 
L 250.265455 640.8 
L 244.178182 640.8 
z
" clip-path="url(#p52cc32056f)" style="opacity: 0.7"/>
   </g>
   <g id="patch_10">
    <path d="M 250.265455 640.8 
L 256.352727 640.8 
L 256.352727 638.947368 
L 250.265455 638.947368 
z
" clip-path="url(#p52cc32056f)" style="opacity: 0.7"/>
   </g>
   <g id="patch_11">
    <path d="M 256.352727 640.8 
L 262.44 640.8 
L 262.44 638.947368 
L 256.352727 638.947368 
z
" clip-path="url(#p52cc32056f)" style="opacity: 0.7"/>
   </g>
   <g id="patch_12">
    <path d="M 262.44 640.8 
L 268.527273 640.8 
L 268.527273 640.8 
L 262.44 640.8 
z
" clip-path="url(#p52cc32056f)" style="opacity: 0.7"/>
   </g>
   <g id="patch_13">
    <path d="M 268.527273 640.8 
L 274.614545 640.8 
L 274.614545 640.8 
L 268.527273 640.8 
z
" clip-path="url(#p52cc32056f)" style="opacity: 0.7"/>
   </g>
   <g id="patch_14">
    <path d="M 274.614545 640.8 
L 280.701818 640.8 
L 280.701818 638.021053 
L 274.614545 638.021053 
z
" clip-path="url(#p52cc32056f)" style="opacity: 0.7"/>
   </g>
   <g id="patch_15">
    <path d="M 280.701818 640.8 
L 286.789091 640.8 
L 286.789091 640.8 
L 280.701818 640.8 
z
" clip-path="url(#p52cc32056f)" style="opacity: 0.7"/>
   </g>
   <g id="patch_16">
    <path d="M 286.789091 640.8 
L 292.876364 640.8 
L 292.876364 638.021053 
L 286.789091 638.021053 
z
" clip-path="url(#p52cc32056f)" style="opacity: 0.7"/>
   </g>
   <g id="patch_17">
    <path d="M 292.876364 640.8 
L 298.963636 640.8 
L 298.963636 640.8 
L 292.876364 640.8 
z
" clip-path="url(#p52cc32056f)" style="opacity: 0.7"/>
   </g>
   <g id="patch_18">
    <path d="M 298.963636 640.8 
L 305.050909 640.8 
L 305.050909 637.094737 
L 298.963636 637.094737 
z
" clip-path="url(#p52cc32056f)" style="opacity: 0.7"/>
   </g>
   <g id="patch_19">
    <path d="M 305.050909 640.8 
L 311.138182 640.8 
L 311.138182 637.094737 
L 305.050909 637.094737 
z
" clip-path="url(#p52cc32056f)" style="opacity: 0.7"/>
   </g>
   <g id="patch_20">
    <path d="M 311.138182 640.8 
L 317.225455 640.8 
L 317.225455 637.094737 
L 311.138182 637.094737 
z
" clip-path="url(#p52cc32056f)" style="opacity: 0.7"/>
   </g>
   <g id="patch_21">
    <path d="M 317.225455 640.8 
L 323.312727 640.8 
L 323.312727 639.873684 
L 317.225455 639.873684 
z
" clip-path="url(#p52cc32056f)" style="opacity: 0.7"/>
   </g>
   <g id="patch_22">
    <path d="M 323.312727 640.8 
L 329.4 640.8 
L 329.4 638.021053 
L 323.312727 638.021053 
z
" clip-path="url(#p52cc32056f)" style="opacity: 0.7"/>
   </g>
   <g id="patch_23">
    <path d="M 329.4 640.8 
L 335.487273 640.8 
L 335.487273 639.873684 
L 329.4 639.873684 
z
" clip-path="url(#p52cc32056f)" style="opacity: 0.7"/>
   </g>
   <g id="patch_24">
    <path d="M 335.487273 640.8 
L 341.574545 640.8 
L 341.574545 639.873684 
L 335.487273 639.873684 
z
" clip-path="url(#p52cc32056f)" style="opacity: 0.7"/>
   </g>
   <g id="patch_25">
    <path d="M 341.574545 640.8 
L 347.661818 640.8 
L 347.661818 638.947368 
L 341.574545 638.947368 
z
" clip-path="url(#p52cc32056f)" style="opacity: 0.7"/>
   </g>
   <g id="patch_26">
    <path d="M 347.661818 640.8 
L 353.749091 640.8 
L 353.749091 636.168421 
L 347.661818 636.168421 
z
" clip-path="url(#p52cc32056f)" style="opacity: 0.7"/>
   </g>
   <g id="patch_27">
    <path d="M 353.749091 640.8 
L 359.836364 640.8 
L 359.836364 638.947368 
L 353.749091 638.947368 
z
" clip-path="url(#p52cc32056f)" style="opacity: 0.7"/>
   </g>
   <g id="patch_28">
    <path d="M 359.836364 640.8 
L 365.923636 640.8 
L 365.923636 634.315789 
L 359.836364 634.315789 
z
" clip-path="url(#p52cc32056f)" style="opacity: 0.7"/>
   </g>
   <g id="patch_29">
    <path d="M 365.923636 640.8 
L 372.010909 640.8 
L 372.010909 636.168421 
L 365.923636 636.168421 
z
" clip-path="url(#p52cc32056f)" style="opacity: 0.7"/>
   </g>
   <g id="patch_30">
    <path d="M 372.010909 640.8 
L 378.098182 640.8 
L 378.098182 635.242105 
L 372.010909 635.242105 
z
" clip-path="url(#p52cc32056f)" style="opacity: 0.7"/>
   </g>
   <g id="patch_31">
    <path d="M 378.098182 640.8 
L 384.185455 640.8 
L 384.185455 630.610526 
L 378.098182 630.610526 
z
" clip-path="url(#p52cc32056f)" style="opacity: 0.7"/>
   </g>
   <g id="patch_32">
    <path d="M 384.185455 640.8 
L 390.272727 640.8 
L 390.272727 636.168421 
L 384.185455 636.168421 
z
" clip-path="url(#p52cc32056f)" style="opacity: 0.7"/>
   </g>
   <g id="patch_33">
    <path d="M 390.272727 640.8 
L 396.36 640.8 
L 396.36 631.536842 
L 390.272727 631.536842 
z
" clip-path="url(#p52cc32056f)" style="opacity: 0.7"/>
   </g>
   <g id="patch_34">
    <path d="M 396.36 640.8 
L 402.447273 640.8 
L 402.447273 632.463158 
L 396.36 632.463158 
z
" clip-path="url(#p52cc32056f)" style="opacity: 0.7"/>
   </g>
   <g id="patch_35">
    <path d="M 402.447273 640.8 
L 408.534545 640.8 
L 408.534545 634.315789 
L 402.447273 634.315789 
z
" clip-path="url(#p52cc32056f)" style="opacity: 0.7"/>
   </g>
   <g id="patch_36">
    <path d="M 408.534545 640.8 
L 414.621818 640.8 
L 414.621818 636.168421 
L 408.534545 636.168421 
z
" clip-path="url(#p52cc32056f)" style="opacity: 0.7"/>
   </g>
   <g id="patch_37">
    <path d="M 414.621818 640.8 
L 420.709091 640.8 
L 420.709091 635.242105 
L 414.621818 635.242105 
z
" clip-path="url(#p52cc32056f)" style="opacity: 0.7"/>
   </g>
   <g id="patch_38">
    <path d="M 420.709091 640.8 
L 426.796364 640.8 
L 426.796364 633.389474 
L 420.709091 633.389474 
z
" clip-path="url(#p52cc32056f)" style="opacity: 0.7"/>
   </g>
   <g id="patch_39">
    <path d="M 426.796364 640.8 
L 432.883636 640.8 
L 432.883636 632.463158 
L 426.796364 632.463158 
z
" clip-path="url(#p52cc32056f)" style="opacity: 0.7"/>
   </g>
   <g id="patch_40">
    <path d="M 432.883636 640.8 
L 438.970909 640.8 
L 438.970909 634.315789 
L 432.883636 634.315789 
z
" clip-path="url(#p52cc32056f)" style="opacity: 0.7"/>
   </g>
   <g id="patch_41">
    <path d="M 438.970909 640.8 
L 445.058182 640.8 
L 445.058182 633.389474 
L 438.970909 633.389474 
z
" clip-path="url(#p52cc32056f)" style="opacity: 0.7"/>
   </g>
   <g id="patch_42">
    <path d="M 445.058182 640.8 
L 451.145455 640.8 
L 451.145455 629.684211 
L 445.058182 629.684211 
z
" clip-path="url(#p52cc32056f)" style="opacity: 0.7"/>
   </g>
   <g id="patch_43">
    <path d="M 451.145455 640.8 
L 457.232727 640.8 
L 457.232727 631.536842 
L 451.145455 631.536842 
z
" clip-path="url(#p52cc32056f)" style="opacity: 0.7"/>
   </g>
   <g id="patch_44">
    <path d="M 457.232727 640.8 
L 463.32 640.8 
L 463.32 631.536842 
L 457.232727 631.536842 
z
" clip-path="url(#p52cc32056f)" style="opacity: 0.7"/>
   </g>
   <g id="patch_45">
    <path d="M 463.32 640.8 
L 469.407273 640.8 
L 469.407273 624.126316 
L 463.32 624.126316 
z
" clip-path="url(#p52cc32056f)" style="opacity: 0.7"/>
   </g>
   <g id="patch_46">
    <path d="M 469.407273 640.8 
L 475.494545 640.8 
L 475.494545 628.757895 
L 469.407273 628.757895 
z
" clip-path="url(#p52cc32056f)" style="opacity: 0.7"/>
   </g>
   <g id="patch_47">
    <path d="M 475.494545 640.8 
L 481.581818 640.8 
L 481.581818 625.052632 
L 475.494545 625.052632 
z
" clip-path="url(#p52cc32056f)" style="opacity: 0.7"/>
   </g>
   <g id="patch_48">
    <path d="M 481.581818 640.8 
L 487.669091 640.8 
L 487.669091 622.273684 
L 481.581818 622.273684 
z
" clip-path="url(#p52cc32056f)" style="opacity: 0.7"/>
   </g>
   <g id="patch_49">
    <path d="M 487.669091 640.8 
L 493.756364 640.8 
L 493.756364 628.757895 
L 487.669091 628.757895 
z
" clip-path="url(#p52cc32056f)" style="opacity: 0.7"/>
   </g>
   <g id="patch_50">
    <path d="M 493.756364 640.8 
L 499.843636 640.8 
L 499.843636 622.273684 
L 493.756364 622.273684 
z
" clip-path="url(#p52cc32056f)" style="opacity: 0.7"/>
   </g>
   <g id="patch_51">
    <path d="M 499.843636 640.8 
L 505.930909 640.8 
L 505.930909 622.273684 
L 499.843636 622.273684 
z
" clip-path="url(#p52cc32056f)" style="opacity: 0.7"/>
   </g>
   <g id="patch_52">
    <path d="M 505.930909 640.8 
L 512.018182 640.8 
L 512.018182 621.347368 
L 505.930909 621.347368 
z
" clip-path="url(#p52cc32056f)" style="opacity: 0.7"/>
   </g>
   <g id="patch_53">
    <path d="M 512.018182 640.8 
L 518.105455 640.8 
L 518.105455 624.126316 
L 512.018182 624.126316 
z
" clip-path="url(#p52cc32056f)" style="opacity: 0.7"/>
   </g>
   <g id="patch_54">
    <path d="M 518.105455 640.8 
L 524.192727 640.8 
L 524.192727 621.347368 
L 518.105455 621.347368 
z
" clip-path="url(#p52cc32056f)" style="opacity: 0.7"/>
   </g>
   <g id="patch_55">
    <path d="M 524.192727 640.8 
L 530.28 640.8 
L 530.28 614.863158 
L 524.192727 614.863158 
z
" clip-path="url(#p52cc32056f)" style="opacity: 0.7"/>
   </g>
   <g id="patch_56">
    <path d="M 530.28 640.8 
L 536.367273 640.8 
L 536.367273 619.494737 
L 530.28 619.494737 
z
" clip-path="url(#p52cc32056f)" style="opacity: 0.7"/>
   </g>
   <g id="patch_57">
    <path d="M 536.367273 640.8 
L 542.454545 640.8 
L 542.454545 623.2 
L 536.367273 623.2 
z
" clip-path="url(#p52cc32056f)" style="opacity: 0.7"/>
   </g>
   <g id="patch_58">
    <path d="M 542.454545 640.8 
L 548.541818 640.8 
L 548.541818 614.863158 
L 542.454545 614.863158 
z
" clip-path="url(#p52cc32056f)" style="opacity: 0.7"/>
   </g>
   <g id="patch_59">
    <path d="M 548.541818 640.8 
L 554.629091 640.8 
L 554.629091 616.715789 
L 548.541818 616.715789 
z
" clip-path="url(#p52cc32056f)" style="opacity: 0.7"/>
   </g>
   <g id="patch_60">
    <path d="M 554.629091 640.8 
L 560.716364 640.8 
L 560.716364 617.642105 
L 554.629091 617.642105 
z
" clip-path="url(#p52cc32056f)" style="opacity: 0.7"/>
   </g>
   <g id="patch_61">
    <path d="M 560.716364 640.8 
L 566.803636 640.8 
L 566.803636 604.673684 
L 560.716364 604.673684 
z
" clip-path="url(#p52cc32056f)" style="opacity: 0.7"/>
   </g>
   <g id="patch_62">
    <path d="M 566.803636 640.8 
L 572.890909 640.8 
L 572.890909 611.157895 
L 566.803636 611.157895 
z
" clip-path="url(#p52cc32056f)" style="opacity: 0.7"/>
   </g>
   <g id="patch_63">
    <path d="M 572.890909 640.8 
L 578.978182 640.8 
L 578.978182 611.157895 
L 572.890909 611.157895 
z
" clip-path="url(#p52cc32056f)" style="opacity: 0.7"/>
   </g>
   <g id="patch_64">
    <path d="M 578.978182 640.8 
L 585.065455 640.8 
L 585.065455 605.6 
L 578.978182 605.6 
z
" clip-path="url(#p52cc32056f)" style="opacity: 0.7"/>
   </g>
   <g id="patch_65">
    <path d="M 585.065455 640.8 
L 591.152727 640.8 
L 591.152727 613.010526 
L 585.065455 613.010526 
z
" clip-path="url(#p52cc32056f)" style="opacity: 0.7"/>
   </g>
   <g id="patch_66">
    <path d="M 591.152727 640.8 
L 597.24 640.8 
L 597.24 600.968421 
L 591.152727 600.968421 
z
" clip-path="url(#p52cc32056f)" style="opacity: 0.7"/>
   </g>
   <g id="patch_67">
    <path d="M 597.24 640.8 
L 603.327273 640.8 
L 603.327273 603.747368 
L 597.24 603.747368 
z
" clip-path="url(#p52cc32056f)" style="opacity: 0.7"/>
   </g>
   <g id="patch_68">
    <path d="M 603.327273 640.8 
L 609.414545 640.8 
L 609.414545 597.263158 
L 603.327273 597.263158 
z
" clip-path="url(#p52cc32056f)" style="opacity: 0.7"/>
   </g>
   <g id="patch_69">
    <path d="M 609.414545 640.8 
L 615.501818 640.8 
L 615.501818 591.705263 
L 609.414545 591.705263 
z
" clip-path="url(#p52cc32056f)" style="opacity: 0.7"/>
   </g>
   <g id="patch_70">
    <path d="M 615.501818 640.8 
L 621.589091 640.8 
L 621.589091 582.442105 
L 615.501818 582.442105 
z
" clip-path="url(#p52cc32056f)" style="opacity: 0.7"/>
   </g>
   <g id="patch_71">
    <path d="M 621.589091 640.8 
L 627.676364 640.8 
L 627.676364 590.778947 
L 621.589091 590.778947 
z
" clip-path="url(#p52cc32056f)" style="opacity: 0.7"/>
   </g>
   <g id="patch_72">
    <path d="M 627.676364 640.8 
L 633.763636 640.8 
L 633.763636 592.631579 
L 627.676364 592.631579 
z
" clip-path="url(#p52cc32056f)" style="opacity: 0.7"/>
   </g>
   <g id="patch_73">
    <path d="M 633.763636 640.8 
L 639.850909 640.8 
L 639.850909 584.294737 
L 633.763636 584.294737 
z
" clip-path="url(#p52cc32056f)" style="opacity: 0.7"/>
   </g>
   <g id="patch_74">
    <path d="M 639.850909 640.8 
L 645.938182 640.8 
L 645.938182 559.284211 
L 639.850909 559.284211 
z
" clip-path="url(#p52cc32056f)" style="opacity: 0.7"/>
   </g>
   <g id="patch_75">
    <path d="M 645.938182 640.8 
L 652.025455 640.8 
L 652.025455 592.631579 
L 645.938182 592.631579 
z
" clip-path="url(#p52cc32056f)" style="opacity: 0.7"/>
   </g>
   <g id="patch_76">
    <path d="M 652.025455 640.8 
L 658.112727 640.8 
L 658.112727 594.484211 
L 652.025455 594.484211 
z
" clip-path="url(#p52cc32056f)" style="opacity: 0.7"/>
   </g>
   <g id="patch_77">
    <path d="M 658.112727 640.8 
L 664.2 640.8 
L 664.2 576.884211 
L 658.112727 576.884211 
z
" clip-path="url(#p52cc32056f)" style="opacity: 0.7"/>
   </g>
   <g id="patch_78">
    <path d="M 664.2 640.8 
L 670.287273 640.8 
L 670.287273 588 
L 664.2 588 
z
" clip-path="url(#p52cc32056f)" style="opacity: 0.7"/>
   </g>
   <g id="patch_79">
    <path d="M 670.287273 640.8 
L 676.374545 640.8 
L 676.374545 569.473684 
L 670.287273 569.473684 
z
" clip-path="url(#p52cc32056f)" style="opacity: 0.7"/>
   </g>
   <g id="patch_80">
    <path d="M 676.374545 640.8 
L 682.461818 640.8 
L 682.461818 564.842105 
L 676.374545 564.842105 
z
" clip-path="url(#p52cc32056f)" style="opacity: 0.7"/>
   </g>
   <g id="patch_81">
    <path d="M 682.461818 640.8 
L 688.549091 640.8 
L 688.549091 566.694737 
L 682.461818 566.694737 
z
" clip-path="url(#p52cc32056f)" style="opacity: 0.7"/>
   </g>
   <g id="patch_82">
    <path d="M 688.549091 640.8 
L 694.636364 640.8 
L 694.636364 587.073684 
L 688.549091 587.073684 
z
" clip-path="url(#p52cc32056f)" style="opacity: 0.7"/>
   </g>
   <g id="patch_83">
    <path d="M 694.636364 640.8 
L 700.723636 640.8 
L 700.723636 573.178947 
L 694.636364 573.178947 
z
" clip-path="url(#p52cc32056f)" style="opacity: 0.7"/>
   </g>
   <g id="patch_84">
    <path d="M 700.723636 640.8 
L 706.810909 640.8 
L 706.810909 554.652632 
L 700.723636 554.652632 
z
" clip-path="url(#p52cc32056f)" style="opacity: 0.7"/>
   </g>
   <g id="patch_85">
    <path d="M 706.810909 640.8 
L 712.898182 640.8 
L 712.898182 578.736842 
L 706.810909 578.736842 
z
" clip-path="url(#p52cc32056f)" style="opacity: 0.7"/>
   </g>
   <g id="patch_86">
    <path d="M 712.898182 640.8 
L 718.985455 640.8 
L 718.985455 560.210526 
L 712.898182 560.210526 
z
" clip-path="url(#p52cc32056f)" style="opacity: 0.7"/>
   </g>
   <g id="patch_87">
    <path d="M 718.985455 640.8 
L 725.072727 640.8 
L 725.072727 555.578947 
L 718.985455 555.578947 
z
" clip-path="url(#p52cc32056f)" style="opacity: 0.7"/>
   </g>
   <g id="patch_88">
    <path d="M 725.072727 640.8 
L 731.16 640.8 
L 731.16 569.473684 
L 725.072727 569.473684 
z
" clip-path="url(#p52cc32056f)" style="opacity: 0.7"/>
   </g>
   <g id="patch_89">
    <path d="M 731.16 640.8 
L 737.247273 640.8 
L 737.247273 585.221053 
L 731.16 585.221053 
z
" clip-path="url(#p52cc32056f)" style="opacity: 0.7"/>
   </g>
   <g id="patch_90">
    <path d="M 737.247273 640.8 
L 743.334545 640.8 
L 743.334545 563.915789 
L 737.247273 563.915789 
z
" clip-path="url(#p52cc32056f)" style="opacity: 0.7"/>
   </g>
   <g id="patch_91">
    <path d="M 743.334545 640.8 
L 749.421818 640.8 
L 749.421818 576.884211 
L 743.334545 576.884211 
z
" clip-path="url(#p52cc32056f)" style="opacity: 0.7"/>
   </g>
   <g id="patch_92">
    <path d="M 749.421818 640.8 
L 755.509091 640.8 
L 755.509091 580.589474 
L 749.421818 580.589474 
z
" clip-path="url(#p52cc32056f)" style="opacity: 0.7"/>
   </g>
   <g id="patch_93">
    <path d="M 755.509091 640.8 
L 761.596364 640.8 
L 761.596364 595.410526 
L 755.509091 595.410526 
z
" clip-path="url(#p52cc32056f)" style="opacity: 0.7"/>
   </g>
   <g id="patch_94">
    <path d="M 761.596364 640.8 
L 767.683636 640.8 
L 767.683636 576.884211 
L 761.596364 576.884211 
z
" clip-path="url(#p52cc32056f)" style="opacity: 0.7"/>
   </g>
   <g id="patch_95">
    <path d="M 767.683636 640.8 
L 773.770909 640.8 
L 773.770909 585.221053 
L 767.683636 585.221053 
z
" clip-path="url(#p52cc32056f)" style="opacity: 0.7"/>
   </g>
   <g id="patch_96">
    <path d="M 773.770909 640.8 
L 779.858182 640.8 
L 779.858182 575.031579 
L 773.770909 575.031579 
z
" clip-path="url(#p52cc32056f)" style="opacity: 0.7"/>
   </g>
   <g id="patch_97">
    <path d="M 779.858182 640.8 
L 785.945455 640.8 
L 785.945455 593.557895 
L 779.858182 593.557895 
z
" clip-path="url(#p52cc32056f)" style="opacity: 0.7"/>
   </g>
   <g id="patch_98">
    <path d="M 785.945455 640.8 
L 792.032727 640.8 
L 792.032727 576.884211 
L 785.945455 576.884211 
z
" clip-path="url(#p52cc32056f)" style="opacity: 0.7"/>
   </g>
   <g id="patch_99">
    <path d="M 792.032727 640.8 
L 798.12 640.8 
L 798.12 591.705263 
L 792.032727 591.705263 
z
" clip-path="url(#p52cc32056f)" style="opacity: 0.7"/>
   </g>
   <g id="patch_100">
    <path d="M 798.12 640.8 
L 804.207273 640.8 
L 804.207273 581.515789 
L 798.12 581.515789 
z
" clip-path="url(#p52cc32056f)" style="opacity: 0.7"/>
   </g>
   <g id="patch_101">
    <path d="M 804.207273 640.8 
L 810.294545 640.8 
L 810.294545 578.736842 
L 804.207273 578.736842 
z
" clip-path="url(#p52cc32056f)" style="opacity: 0.7"/>
   </g>
   <g id="patch_102">
    <path d="M 810.294545 640.8 
L 816.381818 640.8 
L 816.381818 588 
L 810.294545 588 
z
" clip-path="url(#p52cc32056f)" style="opacity: 0.7"/>
   </g>
   <g id="patch_103">
    <path d="M 816.381818 640.8 
L 822.469091 640.8 
L 822.469091 583.368421 
L 816.381818 583.368421 
z
" clip-path="url(#p52cc32056f)" style="opacity: 0.7"/>
   </g>
   <g id="patch_104">
    <path d="M 822.469091 640.8 
L 828.556364 640.8 
L 828.556364 582.442105 
L 822.469091 582.442105 
z
" clip-path="url(#p52cc32056f)" style="opacity: 0.7"/>
   </g>
   <g id="patch_105">
    <path d="M 828.556364 640.8 
L 834.643636 640.8 
L 834.643636 583.368421 
L 828.556364 583.368421 
z
" clip-path="url(#p52cc32056f)" style="opacity: 0.7"/>
   </g>
   <g id="patch_106">
    <path d="M 834.643636 640.8 
L 840.730909 640.8 
L 840.730909 583.368421 
L 834.643636 583.368421 
z
" clip-path="url(#p52cc32056f)" style="opacity: 0.7"/>
   </g>
   <g id="patch_107">
    <path d="M 840.730909 640.8 
L 846.818182 640.8 
L 846.818182 586.147368 
L 840.730909 586.147368 
z
" clip-path="url(#p52cc32056f)" style="opacity: 0.7"/>
   </g>
   <g id="patch_108">
    <path d="M 846.818182 640.8 
L 852.905455 640.8 
L 852.905455 581.515789 
L 846.818182 581.515789 
z
" clip-path="url(#p52cc32056f)" style="opacity: 0.7"/>
   </g>
   <g id="patch_109">
    <path d="M 852.905455 640.8 
L 858.992727 640.8 
L 858.992727 590.778947 
L 852.905455 590.778947 
z
" clip-path="url(#p52cc32056f)" style="opacity: 0.7"/>
   </g>
   <g id="patch_110">
    <path d="M 858.992727 640.8 
L 865.08 640.8 
L 865.08 589.852632 
L 858.992727 589.852632 
z
" clip-path="url(#p52cc32056f)" style="opacity: 0.7"/>
   </g>
   <g id="patch_111">
    <path d="M 865.08 640.8 
L 871.167273 640.8 
L 871.167273 588 
L 865.08 588 
z
" clip-path="url(#p52cc32056f)" style="opacity: 0.7"/>
   </g>
   <g id="patch_112">
    <path d="M 871.167273 640.8 
L 877.254545 640.8 
L 877.254545 597.263158 
L 871.167273 597.263158 
z
" clip-path="url(#p52cc32056f)" style="opacity: 0.7"/>
   </g>
   <g id="patch_113">
    <path d="M 877.254545 640.8 
L 883.341818 640.8 
L 883.341818 582.442105 
L 877.254545 582.442105 
z
" clip-path="url(#p52cc32056f)" style="opacity: 0.7"/>
   </g>
   <g id="patch_114">
    <path d="M 883.341818 640.8 
L 889.429091 640.8 
L 889.429091 576.884211 
L 883.341818 576.884211 
z
" clip-path="url(#p52cc32056f)" style="opacity: 0.7"/>
   </g>
   <g id="patch_115">
    <path d="M 889.429091 640.8 
L 895.516364 640.8 
L 895.516364 589.852632 
L 889.429091 589.852632 
z
" clip-path="url(#p52cc32056f)" style="opacity: 0.7"/>
   </g>
   <g id="patch_116">
    <path d="M 895.516364 640.8 
L 901.603636 640.8 
L 901.603636 575.031579 
L 895.516364 575.031579 
z
" clip-path="url(#p52cc32056f)" style="opacity: 0.7"/>
   </g>
   <g id="patch_117">
    <path d="M 901.603636 640.8 
L 907.690909 640.8 
L 907.690909 593.557895 
L 901.603636 593.557895 
z
" clip-path="url(#p52cc32056f)" style="opacity: 0.7"/>
   </g>
   <g id="patch_118">
    <path d="M 907.690909 640.8 
L 913.778182 640.8 
L 913.778182 584.294737 
L 907.690909 584.294737 
z
" clip-path="url(#p52cc32056f)" style="opacity: 0.7"/>
   </g>
   <g id="patch_119">
    <path d="M 913.778182 640.8 
L 919.865455 640.8 
L 919.865455 589.852632 
L 913.778182 589.852632 
z
" clip-path="url(#p52cc32056f)" style="opacity: 0.7"/>
   </g>
   <g id="patch_120">
    <path d="M 919.865455 640.8 
L 925.952727 640.8 
L 925.952727 579.663158 
L 919.865455 579.663158 
z
" clip-path="url(#p52cc32056f)" style="opacity: 0.7"/>
   </g>
   <g id="patch_121">
    <path d="M 925.952727 640.8 
L 932.04 640.8 
L 932.04 595.410526 
L 925.952727 595.410526 
z
" clip-path="url(#p52cc32056f)" style="opacity: 0.7"/>
   </g>
   <g id="patch_122">
    <path d="M 932.04 640.8 
L 938.127273 640.8 
L 938.127273 566.694737 
L 932.04 566.694737 
z
" clip-path="url(#p52cc32056f)" style="opacity: 0.7"/>
   </g>
   <g id="patch_123">
    <path d="M 938.127273 640.8 
L 944.214545 640.8 
L 944.214545 581.515789 
L 938.127273 581.515789 
z
" clip-path="url(#p52cc32056f)" style="opacity: 0.7"/>
   </g>
   <g id="patch_124">
    <path d="M 944.214545 640.8 
L 950.301818 640.8 
L 950.301818 559.284211 
L 944.214545 559.284211 
z
" clip-path="url(#p52cc32056f)" style="opacity: 0.7"/>
   </g>
   <g id="patch_125">
    <path d="M 950.301818 640.8 
L 956.389091 640.8 
L 956.389091 574.105263 
L 950.301818 574.105263 
z
" clip-path="url(#p52cc32056f)" style="opacity: 0.7"/>
   </g>
   <g id="patch_126">
    <path d="M 956.389091 640.8 
L 962.476364 640.8 
L 962.476364 581.515789 
L 956.389091 581.515789 
z
" clip-path="url(#p52cc32056f)" style="opacity: 0.7"/>
   </g>
   <g id="patch_127">
    <path d="M 962.476364 640.8 
L 968.563636 640.8 
L 968.563636 557.431579 
L 962.476364 557.431579 
z
" clip-path="url(#p52cc32056f)" style="opacity: 0.7"/>
   </g>
   <g id="patch_128">
    <path d="M 968.563636 640.8 
L 974.650909 640.8 
L 974.650909 570.4 
L 968.563636 570.4 
z
" clip-path="url(#p52cc32056f)" style="opacity: 0.7"/>
   </g>
   <g id="patch_129">
    <path d="M 974.650909 640.8 
L 980.738182 640.8 
L 980.738182 565.768421 
L 974.650909 565.768421 
z
" clip-path="url(#p52cc32056f)" style="opacity: 0.7"/>
   </g>
   <g id="patch_130">
    <path d="M 980.738182 640.8 
L 986.825455 640.8 
L 986.825455 557.431579 
L 980.738182 557.431579 
z
" clip-path="url(#p52cc32056f)" style="opacity: 0.7"/>
   </g>
   <g id="patch_131">
    <path d="M 986.825455 640.8 
L 992.912727 640.8 
L 992.912727 551.873684 
L 986.825455 551.873684 
z
" clip-path="url(#p52cc32056f)" style="opacity: 0.7"/>
   </g>
   <g id="patch_132">
    <path d="M 992.912727 640.8 
L 999 640.8 
L 999 553.726316 
L 992.912727 553.726316 
z
" clip-path="url(#p52cc32056f)" style="opacity: 0.7"/>
   </g>
   <g id="patch_133">
    <path d="M 999 640.8 
L 1005.087273 640.8 
L 1005.087273 552.8 
L 999 552.8 
z
" clip-path="url(#p52cc32056f)" style="opacity: 0.7"/>
   </g>
   <g id="patch_134">
    <path d="M 1005.087273 640.8 
L 1011.174545 640.8 
L 1011.174545 550.021053 
L 1005.087273 550.021053 
z
" clip-path="url(#p52cc32056f)" style="opacity: 0.7"/>
   </g>
   <g id="patch_135">
    <path d="M 1011.174545 640.8 
L 1017.261818 640.8 
L 1017.261818 550.021053 
L 1011.174545 550.021053 
z
" clip-path="url(#p52cc32056f)" style="opacity: 0.7"/>
   </g>
   <g id="patch_136">
    <path d="M 1017.261818 640.8 
L 1023.349091 640.8 
L 1023.349091 525.936842 
L 1017.261818 525.936842 
z
" clip-path="url(#p52cc32056f)" style="opacity: 0.7"/>
   </g>
   <g id="patch_137">
    <path d="M 1023.349091 640.8 
L 1029.436364 640.8 
L 1029.436364 517.6 
L 1023.349091 517.6 
z
" clip-path="url(#p52cc32056f)" style="opacity: 0.7"/>
   </g>
   <g id="patch_138">
    <path d="M 1029.436364 640.8 
L 1035.523636 640.8 
L 1035.523636 508.336842 
L 1029.436364 508.336842 
z
" clip-path="url(#p52cc32056f)" style="opacity: 0.7"/>
   </g>
   <g id="patch_139">
    <path d="M 1035.523636 640.8 
L 1041.610909 640.8 
L 1041.610909 518.526316 
L 1035.523636 518.526316 
z
" clip-path="url(#p52cc32056f)" style="opacity: 0.7"/>
   </g>
   <g id="patch_140">
    <path d="M 1041.610909 640.8 
L 1047.698182 640.8 
L 1047.698182 492.589474 
L 1041.610909 492.589474 
z
" clip-path="url(#p52cc32056f)" style="opacity: 0.7"/>
   </g>
   <g id="patch_141">
    <path d="M 1047.698182 640.8 
L 1053.785455 640.8 
L 1053.785455 492.589474 
L 1047.698182 492.589474 
z
" clip-path="url(#p52cc32056f)" style="opacity: 0.7"/>
   </g>
   <g id="patch_142">
    <path d="M 1053.785455 640.8 
L 1059.872727 640.8 
L 1059.872727 499.073684 
L 1053.785455 499.073684 
z
" clip-path="url(#p52cc32056f)" style="opacity: 0.7"/>
   </g>
   <g id="patch_143">
    <path d="M 1059.872727 640.8 
L 1065.96 640.8 
L 1065.96 432.378947 
L 1059.872727 432.378947 
z
" clip-path="url(#p52cc32056f)" style="opacity: 0.7"/>
   </g>
   <g id="patch_144">
    <path d="M 1065.96 640.8 
L 1072.047273 640.8 
L 1072.047273 480.547368 
L 1065.96 480.547368 
z
" clip-path="url(#p52cc32056f)" style="opacity: 0.7"/>
   </g>
   <g id="patch_145">
    <path d="M 1072.047273 640.8 
L 1078.134545 640.8 
L 1078.134545 442.568421 
L 1072.047273 442.568421 
z
" clip-path="url(#p52cc32056f)" style="opacity: 0.7"/>
   </g>
   <g id="patch_146">
    <path d="M 1078.134545 640.8 
L 1084.221818 640.8 
L 1084.221818 408.294737 
L 1078.134545 408.294737 
z
" clip-path="url(#p52cc32056f)" style="opacity: 0.7"/>
   </g>
   <g id="patch_147">
    <path d="M 1084.221818 640.8 
L 1090.309091 640.8 
L 1090.309091 369.389474 
L 1084.221818 369.389474 
z
" clip-path="url(#p52cc32056f)" style="opacity: 0.7"/>
   </g>
   <g id="patch_148">
    <path d="M 1090.309091 640.8 
L 1096.396364 640.8 
L 1096.396364 396.252632 
L 1090.309091 396.252632 
z
" clip-path="url(#p52cc32056f)" style="opacity: 0.7"/>
   </g>
   <g id="patch_149">
    <path d="M 1096.396364 640.8 
L 1102.483636 640.8 
L 1102.483636 320.294737 
L 1096.396364 320.294737 
z
" clip-path="url(#p52cc32056f)" style="opacity: 0.7"/>
   </g>
   <g id="patch_150">
    <path d="M 1102.483636 640.8 
L 1108.570909 640.8 
L 1108.570909 112.8 
L 1102.483636 112.8 
z
" clip-path="url(#p52cc32056f)" style="opacity: 0.7"/>
   </g>
   <g id="patch_151">
    <path d="M 1108.570909 640.8 
L 1114.658182 640.8 
L 1114.658182 327.705263 
L 1108.570909 327.705263 
z
" clip-path="url(#p52cc32056f)" style="opacity: 0.7"/>
   </g>
   <g id="patch_152">
    <path d="M 1114.658182 640.8 
L 1120.745455 640.8 
L 1120.745455 259.157895 
L 1114.658182 259.157895 
z
" clip-path="url(#p52cc32056f)" style="opacity: 0.7"/>
   </g>
   <g id="matplotlib.axis_1">
    <g id="xtick_1">
     <g id="line2d_1">
      <defs>
       <path id="m5464712d67" d="M 0 0 
L 0 3.5 
" style="stroke: #000000; stroke-width: 0.8"/>
      </defs>
      <g>
       <use xlink:href="#m5464712d67" x="187.518969" y="640.8" style="stroke: #000000; stroke-width: 0.8"/>
      </g>
     </g>
     <g id="text_1">
      <!-- 40000 -->
      <g transform="translate(165.250219 658.437813) scale(0.14 -0.14)">
       <defs>
        <path id="DejaVuSans-34" d="M 2419 4116 
L 825 1625 
L 2419 1625 
L 2419 4116 
z
M 2253 4666 
L 3047 4666 
L 3047 1625 
L 3713 1625 
L 3713 1100 
L 3047 1100 
L 3047 0 
L 2419 0 
L 2419 1100 
L 313 1100 
L 313 1709 
L 2253 4666 
z
" transform="scale(0.015625)"/>
        <path id="DejaVuSans-30" d="M 2034 4250 
Q 1547 4250 1301 3770 
Q 1056 3291 1056 2328 
Q 1056 1369 1301 889 
Q 1547 409 2034 409 
Q 2525 409 2770 889 
Q 3016 1369 3016 2328 
Q 3016 3291 2770 3770 
Q 2525 4250 2034 4250 
z
M 2034 4750 
Q 2819 4750 3233 4129 
Q 3647 3509 3647 2328 
Q 3647 1150 3233 529 
Q 2819 -91 2034 -91 
Q 1250 -91 836 529 
Q 422 1150 422 2328 
Q 422 3509 836 4129 
Q 1250 4750 2034 4750 
z
" transform="scale(0.015625)"/>
       </defs>
       <use xlink:href="#DejaVuSans-34"/>
       <use xlink:href="#DejaVuSans-30" x="63.623047"/>
       <use xlink:href="#DejaVuSans-30" x="127.246094"/>
       <use xlink:href="#DejaVuSans-30" x="190.869141"/>
       <use xlink:href="#DejaVuSans-30" x="254.492188"/>
      </g>
     </g>
    </g>
    <g id="xtick_2">
     <g id="line2d_2">
      <g>
       <use xlink:href="#m5464712d67" x="306.699655" y="640.8" style="stroke: #000000; stroke-width: 0.8"/>
      </g>
     </g>
     <g id="text_2">
      <!-- 60000 -->
      <g transform="translate(284.430905 658.437813) scale(0.14 -0.14)">
       <defs>
        <path id="DejaVuSans-36" d="M 2113 2584 
Q 1688 2584 1439 2293 
Q 1191 2003 1191 1497 
Q 1191 994 1439 701 
Q 1688 409 2113 409 
Q 2538 409 2786 701 
Q 3034 994 3034 1497 
Q 3034 2003 2786 2293 
Q 2538 2584 2113 2584 
z
M 3366 4563 
L 3366 3988 
Q 3128 4100 2886 4159 
Q 2644 4219 2406 4219 
Q 1781 4219 1451 3797 
Q 1122 3375 1075 2522 
Q 1259 2794 1537 2939 
Q 1816 3084 2150 3084 
Q 2853 3084 3261 2657 
Q 3669 2231 3669 1497 
Q 3669 778 3244 343 
Q 2819 -91 2113 -91 
Q 1303 -91 875 529 
Q 447 1150 447 2328 
Q 447 3434 972 4092 
Q 1497 4750 2381 4750 
Q 2619 4750 2861 4703 
Q 3103 4656 3366 4563 
z
" transform="scale(0.015625)"/>
       </defs>
       <use xlink:href="#DejaVuSans-36"/>
       <use xlink:href="#DejaVuSans-30" x="63.623047"/>
       <use xlink:href="#DejaVuSans-30" x="127.246094"/>
       <use xlink:href="#DejaVuSans-30" x="190.869141"/>
       <use xlink:href="#DejaVuSans-30" x="254.492188"/>
      </g>
     </g>
    </g>
    <g id="xtick_3">
     <g id="line2d_3">
      <g>
       <use xlink:href="#m5464712d67" x="425.880341" y="640.8" style="stroke: #000000; stroke-width: 0.8"/>
      </g>
     </g>
     <g id="text_3">
      <!-- 80000 -->
      <g transform="translate(403.611591 658.437813) scale(0.14 -0.14)">
       <defs>
        <path id="DejaVuSans-38" d="M 2034 2216 
Q 1584 2216 1326 1975 
Q 1069 1734 1069 1313 
Q 1069 891 1326 650 
Q 1584 409 2034 409 
Q 2484 409 2743 651 
Q 3003 894 3003 1313 
Q 3003 1734 2745 1975 
Q 2488 2216 2034 2216 
z
M 1403 2484 
Q 997 2584 770 2862 
Q 544 3141 544 3541 
Q 544 4100 942 4425 
Q 1341 4750 2034 4750 
Q 2731 4750 3128 4425 
Q 3525 4100 3525 3541 
Q 3525 3141 3298 2862 
Q 3072 2584 2669 2484 
Q 3125 2378 3379 2068 
Q 3634 1759 3634 1313 
Q 3634 634 3220 271 
Q 2806 -91 2034 -91 
Q 1263 -91 848 271 
Q 434 634 434 1313 
Q 434 1759 690 2068 
Q 947 2378 1403 2484 
z
M 1172 3481 
Q 1172 3119 1398 2916 
Q 1625 2713 2034 2713 
Q 2441 2713 2670 2916 
Q 2900 3119 2900 3481 
Q 2900 3844 2670 4047 
Q 2441 4250 2034 4250 
Q 1625 4250 1398 4047 
Q 1172 3844 1172 3481 
z
" transform="scale(0.015625)"/>
       </defs>
       <use xlink:href="#DejaVuSans-38"/>
       <use xlink:href="#DejaVuSans-30" x="63.623047"/>
       <use xlink:href="#DejaVuSans-30" x="127.246094"/>
       <use xlink:href="#DejaVuSans-30" x="190.869141"/>
       <use xlink:href="#DejaVuSans-30" x="254.492188"/>
      </g>
     </g>
    </g>
    <g id="xtick_4">
     <g id="line2d_4">
      <g>
       <use xlink:href="#m5464712d67" x="545.061027" y="640.8" style="stroke: #000000; stroke-width: 0.8"/>
      </g>
     </g>
     <g id="text_4">
      <!-- 100000 -->
      <g transform="translate(518.338527 658.437813) scale(0.14 -0.14)">
       <defs>
        <path id="DejaVuSans-31" d="M 794 531 
L 1825 531 
L 1825 4091 
L 703 3866 
L 703 4441 
L 1819 4666 
L 2450 4666 
L 2450 531 
L 3481 531 
L 3481 0 
L 794 0 
L 794 531 
z
" transform="scale(0.015625)"/>
       </defs>
       <use xlink:href="#DejaVuSans-31"/>
       <use xlink:href="#DejaVuSans-30" x="63.623047"/>
       <use xlink:href="#DejaVuSans-30" x="127.246094"/>
       <use xlink:href="#DejaVuSans-30" x="190.869141"/>
       <use xlink:href="#DejaVuSans-30" x="254.492188"/>
       <use xlink:href="#DejaVuSans-30" x="318.115234"/>
      </g>
     </g>
    </g>
    <g id="xtick_5">
     <g id="line2d_5">
      <g>
       <use xlink:href="#m5464712d67" x="664.241713" y="640.8" style="stroke: #000000; stroke-width: 0.8"/>
      </g>
     </g>
     <g id="text_5">
      <!-- 120000 -->
      <g transform="translate(637.519213 658.437813) scale(0.14 -0.14)">
       <defs>
        <path id="DejaVuSans-32" d="M 1228 531 
L 3431 531 
L 3431 0 
L 469 0 
L 469 531 
Q 828 903 1448 1529 
Q 2069 2156 2228 2338 
Q 2531 2678 2651 2914 
Q 2772 3150 2772 3378 
Q 2772 3750 2511 3984 
Q 2250 4219 1831 4219 
Q 1534 4219 1204 4116 
Q 875 4013 500 3803 
L 500 4441 
Q 881 4594 1212 4672 
Q 1544 4750 1819 4750 
Q 2544 4750 2975 4387 
Q 3406 4025 3406 3419 
Q 3406 3131 3298 2873 
Q 3191 2616 2906 2266 
Q 2828 2175 2409 1742 
Q 1991 1309 1228 531 
z
" transform="scale(0.015625)"/>
       </defs>
       <use xlink:href="#DejaVuSans-31"/>
       <use xlink:href="#DejaVuSans-32" x="63.623047"/>
       <use xlink:href="#DejaVuSans-30" x="127.246094"/>
       <use xlink:href="#DejaVuSans-30" x="190.869141"/>
       <use xlink:href="#DejaVuSans-30" x="254.492188"/>
       <use xlink:href="#DejaVuSans-30" x="318.115234"/>
      </g>
     </g>
    </g>
    <g id="xtick_6">
     <g id="line2d_6">
      <g>
       <use xlink:href="#m5464712d67" x="783.422399" y="640.8" style="stroke: #000000; stroke-width: 0.8"/>
      </g>
     </g>
     <g id="text_6">
      <!-- 140000 -->
      <g transform="translate(756.699899 658.437813) scale(0.14 -0.14)">
       <use xlink:href="#DejaVuSans-31"/>
       <use xlink:href="#DejaVuSans-34" x="63.623047"/>
       <use xlink:href="#DejaVuSans-30" x="127.246094"/>
       <use xlink:href="#DejaVuSans-30" x="190.869141"/>
       <use xlink:href="#DejaVuSans-30" x="254.492188"/>
       <use xlink:href="#DejaVuSans-30" x="318.115234"/>
      </g>
     </g>
    </g>
    <g id="xtick_7">
     <g id="line2d_7">
      <g>
       <use xlink:href="#m5464712d67" x="902.603086" y="640.8" style="stroke: #000000; stroke-width: 0.8"/>
      </g>
     </g>
     <g id="text_7">
      <!-- 160000 -->
      <g transform="translate(875.880586 658.437813) scale(0.14 -0.14)">
       <use xlink:href="#DejaVuSans-31"/>
       <use xlink:href="#DejaVuSans-36" x="63.623047"/>
       <use xlink:href="#DejaVuSans-30" x="127.246094"/>
       <use xlink:href="#DejaVuSans-30" x="190.869141"/>
       <use xlink:href="#DejaVuSans-30" x="254.492188"/>
       <use xlink:href="#DejaVuSans-30" x="318.115234"/>
      </g>
     </g>
    </g>
    <g id="xtick_8">
     <g id="line2d_8">
      <g>
       <use xlink:href="#m5464712d67" x="1021.783772" y="640.8" style="stroke: #000000; stroke-width: 0.8"/>
      </g>
     </g>
     <g id="text_8">
      <!-- 180000 -->
      <g transform="translate(995.061272 658.437813) scale(0.14 -0.14)">
       <use xlink:href="#DejaVuSans-31"/>
       <use xlink:href="#DejaVuSans-38" x="63.623047"/>
       <use xlink:href="#DejaVuSans-30" x="127.246094"/>
       <use xlink:href="#DejaVuSans-30" x="190.869141"/>
       <use xlink:href="#DejaVuSans-30" x="254.492188"/>
       <use xlink:href="#DejaVuSans-30" x="318.115234"/>
      </g>
     </g>
    </g>
    <g id="xtick_9">
     <g id="line2d_9">
      <g>
       <use xlink:href="#m5464712d67" x="1140.964458" y="640.8" style="stroke: #000000; stroke-width: 0.8"/>
      </g>
     </g>
     <g id="text_9">
      <!-- 200000 -->
      <g transform="translate(1114.241958 658.437813) scale(0.14 -0.14)">
       <use xlink:href="#DejaVuSans-32"/>
       <use xlink:href="#DejaVuSans-30" x="63.623047"/>
       <use xlink:href="#DejaVuSans-30" x="127.246094"/>
       <use xlink:href="#DejaVuSans-30" x="190.869141"/>
       <use xlink:href="#DejaVuSans-30" x="254.492188"/>
       <use xlink:href="#DejaVuSans-30" x="318.115234"/>
      </g>
     </g>
    </g>
    <g id="text_10">
     <!-- Number of White Pixel's -->
     <g transform="translate(568.990156 675.987188) scale(0.14 -0.14)">
      <defs>
       <path id="DejaVuSans-Bold-4e" d="M 588 4666 
L 1931 4666 
L 3628 1466 
L 3628 4666 
L 4769 4666 
L 4769 0 
L 3425 0 
L 1728 3200 
L 1728 0 
L 588 0 
L 588 4666 
z
" transform="scale(0.015625)"/>
       <path id="DejaVuSans-Bold-75" d="M 500 1363 
L 500 3500 
L 1625 3500 
L 1625 3150 
Q 1625 2866 1622 2436 
Q 1619 2006 1619 1863 
Q 1619 1441 1641 1255 
Q 1663 1069 1716 984 
Q 1784 875 1895 815 
Q 2006 756 2150 756 
Q 2500 756 2700 1025 
Q 2900 1294 2900 1772 
L 2900 3500 
L 4019 3500 
L 4019 0 
L 2900 0 
L 2900 506 
Q 2647 200 2364 54 
Q 2081 -91 1741 -91 
Q 1134 -91 817 281 
Q 500 653 500 1363 
z
" transform="scale(0.015625)"/>
       <path id="DejaVuSans-Bold-6d" d="M 3781 2919 
Q 3994 3244 4286 3414 
Q 4578 3584 4928 3584 
Q 5531 3584 5847 3212 
Q 6163 2841 6163 2131 
L 6163 0 
L 5038 0 
L 5038 1825 
Q 5041 1866 5042 1909 
Q 5044 1953 5044 2034 
Q 5044 2406 4934 2573 
Q 4825 2741 4581 2741 
Q 4263 2741 4089 2478 
Q 3916 2216 3909 1719 
L 3909 0 
L 2784 0 
L 2784 1825 
Q 2784 2406 2684 2573 
Q 2584 2741 2328 2741 
Q 2006 2741 1831 2477 
Q 1656 2213 1656 1722 
L 1656 0 
L 531 0 
L 531 3500 
L 1656 3500 
L 1656 2988 
Q 1863 3284 2130 3434 
Q 2397 3584 2719 3584 
Q 3081 3584 3359 3409 
Q 3638 3234 3781 2919 
z
" transform="scale(0.015625)"/>
       <path id="DejaVuSans-Bold-62" d="M 2400 722 
Q 2759 722 2948 984 
Q 3138 1247 3138 1747 
Q 3138 2247 2948 2509 
Q 2759 2772 2400 2772 
Q 2041 2772 1848 2508 
Q 1656 2244 1656 1747 
Q 1656 1250 1848 986 
Q 2041 722 2400 722 
z
M 1656 2988 
Q 1888 3294 2169 3439 
Q 2450 3584 2816 3584 
Q 3463 3584 3878 3070 
Q 4294 2556 4294 1747 
Q 4294 938 3878 423 
Q 3463 -91 2816 -91 
Q 2450 -91 2169 54 
Q 1888 200 1656 506 
L 1656 0 
L 538 0 
L 538 4863 
L 1656 4863 
L 1656 2988 
z
" transform="scale(0.015625)"/>
       <path id="DejaVuSans-Bold-65" d="M 4031 1759 
L 4031 1441 
L 1416 1441 
Q 1456 1047 1700 850 
Q 1944 653 2381 653 
Q 2734 653 3104 758 
Q 3475 863 3866 1075 
L 3866 213 
Q 3469 63 3072 -14 
Q 2675 -91 2278 -91 
Q 1328 -91 801 392 
Q 275 875 275 1747 
Q 275 2603 792 3093 
Q 1309 3584 2216 3584 
Q 3041 3584 3536 3087 
Q 4031 2591 4031 1759 
z
M 2881 2131 
Q 2881 2450 2695 2645 
Q 2509 2841 2209 2841 
Q 1884 2841 1681 2658 
Q 1478 2475 1428 2131 
L 2881 2131 
z
" transform="scale(0.015625)"/>
       <path id="DejaVuSans-Bold-72" d="M 3138 2547 
Q 2991 2616 2845 2648 
Q 2700 2681 2553 2681 
Q 2122 2681 1889 2404 
Q 1656 2128 1656 1613 
L 1656 0 
L 538 0 
L 538 3500 
L 1656 3500 
L 1656 2925 
Q 1872 3269 2151 3426 
Q 2431 3584 2822 3584 
Q 2878 3584 2943 3579 
Q 3009 3575 3134 3559 
L 3138 2547 
z
" transform="scale(0.015625)"/>
       <path id="DejaVuSans-Bold-20" transform="scale(0.015625)"/>
       <path id="DejaVuSans-Bold-6f" d="M 2203 2784 
Q 1831 2784 1636 2517 
Q 1441 2250 1441 1747 
Q 1441 1244 1636 976 
Q 1831 709 2203 709 
Q 2569 709 2762 976 
Q 2956 1244 2956 1747 
Q 2956 2250 2762 2517 
Q 2569 2784 2203 2784 
z
M 2203 3584 
Q 3106 3584 3614 3096 
Q 4122 2609 4122 1747 
Q 4122 884 3614 396 
Q 3106 -91 2203 -91 
Q 1297 -91 786 396 
Q 275 884 275 1747 
Q 275 2609 786 3096 
Q 1297 3584 2203 3584 
z
" transform="scale(0.015625)"/>
       <path id="DejaVuSans-Bold-66" d="M 2841 4863 
L 2841 4128 
L 2222 4128 
Q 1984 4128 1890 4042 
Q 1797 3956 1797 3744 
L 1797 3500 
L 2753 3500 
L 2753 2700 
L 1797 2700 
L 1797 0 
L 678 0 
L 678 2700 
L 122 2700 
L 122 3500 
L 678 3500 
L 678 3744 
Q 678 4316 997 4589 
Q 1316 4863 1984 4863 
L 2841 4863 
z
" transform="scale(0.015625)"/>
       <path id="DejaVuSans-Bold-57" d="M 191 4666 
L 1344 4666 
L 2150 1275 
L 2950 4666 
L 4109 4666 
L 4909 1275 
L 5716 4666 
L 6859 4666 
L 5759 0 
L 4372 0 
L 3525 3547 
L 2688 0 
L 1300 0 
L 191 4666 
z
" transform="scale(0.015625)"/>
       <path id="DejaVuSans-Bold-68" d="M 4056 2131 
L 4056 0 
L 2931 0 
L 2931 347 
L 2931 1625 
Q 2931 2084 2911 2256 
Q 2891 2428 2841 2509 
Q 2775 2619 2662 2680 
Q 2550 2741 2406 2741 
Q 2056 2741 1856 2470 
Q 1656 2200 1656 1722 
L 1656 0 
L 538 0 
L 538 4863 
L 1656 4863 
L 1656 2988 
Q 1909 3294 2193 3439 
Q 2478 3584 2822 3584 
Q 3428 3584 3742 3212 
Q 4056 2841 4056 2131 
z
" transform="scale(0.015625)"/>
       <path id="DejaVuSans-Bold-69" d="M 538 3500 
L 1656 3500 
L 1656 0 
L 538 0 
L 538 3500 
z
M 538 4863 
L 1656 4863 
L 1656 3950 
L 538 3950 
L 538 4863 
z
" transform="scale(0.015625)"/>
       <path id="DejaVuSans-Bold-74" d="M 1759 4494 
L 1759 3500 
L 2913 3500 
L 2913 2700 
L 1759 2700 
L 1759 1216 
Q 1759 972 1856 886 
Q 1953 800 2241 800 
L 2816 800 
L 2816 0 
L 1856 0 
Q 1194 0 917 276 
Q 641 553 641 1216 
L 641 2700 
L 84 2700 
L 84 3500 
L 641 3500 
L 641 4494 
L 1759 4494 
z
" transform="scale(0.015625)"/>
       <path id="DejaVuSans-Bold-50" d="M 588 4666 
L 2584 4666 
Q 3475 4666 3951 4270 
Q 4428 3875 4428 3144 
Q 4428 2409 3951 2014 
Q 3475 1619 2584 1619 
L 1791 1619 
L 1791 0 
L 588 0 
L 588 4666 
z
M 1791 3794 
L 1791 2491 
L 2456 2491 
Q 2806 2491 2997 2661 
Q 3188 2831 3188 3144 
Q 3188 3456 2997 3625 
Q 2806 3794 2456 3794 
L 1791 3794 
z
" transform="scale(0.015625)"/>
       <path id="DejaVuSans-Bold-78" d="M 1422 1791 
L 159 3500 
L 1344 3500 
L 2059 2463 
L 2784 3500 
L 3969 3500 
L 2706 1797 
L 4031 0 
L 2847 0 
L 2059 1106 
L 1281 0 
L 97 0 
L 1422 1791 
z
" transform="scale(0.015625)"/>
       <path id="DejaVuSans-Bold-6c" d="M 538 4863 
L 1656 4863 
L 1656 0 
L 538 0 
L 538 4863 
z
" transform="scale(0.015625)"/>
       <path id="DejaVuSans-Bold-27" d="M 1350 4666 
L 1350 2931 
L 609 2931 
L 609 4666 
L 1350 4666 
z
" transform="scale(0.015625)"/>
       <path id="DejaVuSans-Bold-73" d="M 3272 3391 
L 3272 2541 
Q 2913 2691 2578 2766 
Q 2244 2841 1947 2841 
Q 1628 2841 1473 2761 
Q 1319 2681 1319 2516 
Q 1319 2381 1436 2309 
Q 1553 2238 1856 2203 
L 2053 2175 
Q 2913 2066 3209 1816 
Q 3506 1566 3506 1031 
Q 3506 472 3093 190 
Q 2681 -91 1863 -91 
Q 1516 -91 1145 -36 
Q 775 19 384 128 
L 384 978 
Q 719 816 1070 734 
Q 1422 653 1784 653 
Q 2113 653 2278 743 
Q 2444 834 2444 1013 
Q 2444 1163 2330 1236 
Q 2216 1309 1875 1350 
L 1678 1375 
Q 931 1469 631 1722 
Q 331 1975 331 2491 
Q 331 3047 712 3315 
Q 1094 3584 1881 3584 
Q 2191 3584 2531 3537 
Q 2872 3491 3272 3391 
z
" transform="scale(0.015625)"/>
      </defs>
      <use xlink:href="#DejaVuSans-Bold-4e"/>
      <use xlink:href="#DejaVuSans-Bold-75" x="83.691406"/>
      <use xlink:href="#DejaVuSans-Bold-6d" x="154.882812"/>
      <use xlink:href="#DejaVuSans-Bold-62" x="259.082031"/>
      <use xlink:href="#DejaVuSans-Bold-65" x="330.664062"/>
      <use xlink:href="#DejaVuSans-Bold-72" x="398.486328"/>
      <use xlink:href="#DejaVuSans-Bold-20" x="447.802734"/>
      <use xlink:href="#DejaVuSans-Bold-6f" x="482.617188"/>
      <use xlink:href="#DejaVuSans-Bold-66" x="551.318359"/>
      <use xlink:href="#DejaVuSans-Bold-20" x="594.824219"/>
      <use xlink:href="#DejaVuSans-Bold-57" x="629.638672"/>
      <use xlink:href="#DejaVuSans-Bold-68" x="739.941406"/>
      <use xlink:href="#DejaVuSans-Bold-69" x="811.132812"/>
      <use xlink:href="#DejaVuSans-Bold-74" x="845.410156"/>
      <use xlink:href="#DejaVuSans-Bold-65" x="893.212891"/>
      <use xlink:href="#DejaVuSans-Bold-20" x="961.035156"/>
      <use xlink:href="#DejaVuSans-Bold-50" x="995.849609"/>
      <use xlink:href="#DejaVuSans-Bold-69" x="1069.140625"/>
      <use xlink:href="#DejaVuSans-Bold-78" x="1103.417969"/>
      <use xlink:href="#DejaVuSans-Bold-65" x="1167.919922"/>
      <use xlink:href="#DejaVuSans-Bold-6c" x="1235.742188"/>
      <use xlink:href="#DejaVuSans-Bold-27" x="1270.019531"/>
      <use xlink:href="#DejaVuSans-Bold-73" x="1300.634766"/>
     </g>
    </g>
   </g>
   <g id="matplotlib.axis_2">
    <g id="ytick_1">
     <g id="line2d_10">
      <defs>
       <path id="m929cf1c113" d="M 0 0 
L -3.5 0 
" style="stroke: #000000; stroke-width: 0.8"/>
      </defs>
      <g>
       <use xlink:href="#m929cf1c113" x="162" y="640.8" style="stroke: #000000; stroke-width: 0.8"/>
      </g>
     </g>
     <g id="text_11">
      <!-- 0 -->
      <g transform="translate(146.0925 646.118906) scale(0.14 -0.14)">
       <use xlink:href="#DejaVuSans-30"/>
      </g>
     </g>
    </g>
    <g id="ytick_2">
     <g id="line2d_11">
      <g>
       <use xlink:href="#m929cf1c113" x="162" y="548.168421" style="stroke: #000000; stroke-width: 0.8"/>
      </g>
     </g>
     <g id="text_12">
      <!-- 100 -->
      <g transform="translate(128.2775 553.487327) scale(0.14 -0.14)">
       <use xlink:href="#DejaVuSans-31"/>
       <use xlink:href="#DejaVuSans-30" x="63.623047"/>
       <use xlink:href="#DejaVuSans-30" x="127.246094"/>
      </g>
     </g>
    </g>
    <g id="ytick_3">
     <g id="line2d_12">
      <g>
       <use xlink:href="#m929cf1c113" x="162" y="455.536842" style="stroke: #000000; stroke-width: 0.8"/>
      </g>
     </g>
     <g id="text_13">
      <!-- 200 -->
      <g transform="translate(128.2775 460.855748) scale(0.14 -0.14)">
       <use xlink:href="#DejaVuSans-32"/>
       <use xlink:href="#DejaVuSans-30" x="63.623047"/>
       <use xlink:href="#DejaVuSans-30" x="127.246094"/>
      </g>
     </g>
    </g>
    <g id="ytick_4">
     <g id="line2d_13">
      <g>
       <use xlink:href="#m929cf1c113" x="162" y="362.905263" style="stroke: #000000; stroke-width: 0.8"/>
      </g>
     </g>
     <g id="text_14">
      <!-- 300 -->
      <g transform="translate(128.2775 368.224169) scale(0.14 -0.14)">
       <defs>
        <path id="DejaVuSans-33" d="M 2597 2516 
Q 3050 2419 3304 2112 
Q 3559 1806 3559 1356 
Q 3559 666 3084 287 
Q 2609 -91 1734 -91 
Q 1441 -91 1130 -33 
Q 819 25 488 141 
L 488 750 
Q 750 597 1062 519 
Q 1375 441 1716 441 
Q 2309 441 2620 675 
Q 2931 909 2931 1356 
Q 2931 1769 2642 2001 
Q 2353 2234 1838 2234 
L 1294 2234 
L 1294 2753 
L 1863 2753 
Q 2328 2753 2575 2939 
Q 2822 3125 2822 3475 
Q 2822 3834 2567 4026 
Q 2313 4219 1838 4219 
Q 1578 4219 1281 4162 
Q 984 4106 628 3988 
L 628 4550 
Q 988 4650 1302 4700 
Q 1616 4750 1894 4750 
Q 2613 4750 3031 4423 
Q 3450 4097 3450 3541 
Q 3450 3153 3228 2886 
Q 3006 2619 2597 2516 
z
" transform="scale(0.015625)"/>
       </defs>
       <use xlink:href="#DejaVuSans-33"/>
       <use xlink:href="#DejaVuSans-30" x="63.623047"/>
       <use xlink:href="#DejaVuSans-30" x="127.246094"/>
      </g>
     </g>
    </g>
    <g id="ytick_5">
     <g id="line2d_14">
      <g>
       <use xlink:href="#m929cf1c113" x="162" y="270.273684" style="stroke: #000000; stroke-width: 0.8"/>
      </g>
     </g>
     <g id="text_15">
      <!-- 400 -->
      <g transform="translate(128.2775 275.59259) scale(0.14 -0.14)">
       <use xlink:href="#DejaVuSans-34"/>
       <use xlink:href="#DejaVuSans-30" x="63.623047"/>
       <use xlink:href="#DejaVuSans-30" x="127.246094"/>
      </g>
     </g>
    </g>
    <g id="ytick_6">
     <g id="line2d_15">
      <g>
       <use xlink:href="#m929cf1c113" x="162" y="177.642105" style="stroke: #000000; stroke-width: 0.8"/>
      </g>
     </g>
     <g id="text_16">
      <!-- 500 -->
      <g transform="translate(128.2775 182.961012) scale(0.14 -0.14)">
       <defs>
        <path id="DejaVuSans-35" d="M 691 4666 
L 3169 4666 
L 3169 4134 
L 1269 4134 
L 1269 2991 
Q 1406 3038 1543 3061 
Q 1681 3084 1819 3084 
Q 2600 3084 3056 2656 
Q 3513 2228 3513 1497 
Q 3513 744 3044 326 
Q 2575 -91 1722 -91 
Q 1428 -91 1123 -41 
Q 819 9 494 109 
L 494 744 
Q 775 591 1075 516 
Q 1375 441 1709 441 
Q 2250 441 2565 725 
Q 2881 1009 2881 1497 
Q 2881 1984 2565 2268 
Q 2250 2553 1709 2553 
Q 1456 2553 1204 2497 
Q 953 2441 691 2322 
L 691 4666 
z
" transform="scale(0.015625)"/>
       </defs>
       <use xlink:href="#DejaVuSans-35"/>
       <use xlink:href="#DejaVuSans-30" x="63.623047"/>
       <use xlink:href="#DejaVuSans-30" x="127.246094"/>
      </g>
     </g>
    </g>
    <g id="text_17">
     <!-- Count -->
     <g transform="translate(121.365938 386.858594) rotate(-90) scale(0.14 -0.14)">
      <defs>
       <path id="DejaVuSans-Bold-43" d="M 4288 256 
Q 3956 84 3597 -3 
Q 3238 -91 2847 -91 
Q 1681 -91 1000 561 
Q 319 1213 319 2328 
Q 319 3447 1000 4098 
Q 1681 4750 2847 4750 
Q 3238 4750 3597 4662 
Q 3956 4575 4288 4403 
L 4288 3438 
Q 3953 3666 3628 3772 
Q 3303 3878 2944 3878 
Q 2300 3878 1931 3465 
Q 1563 3053 1563 2328 
Q 1563 1606 1931 1193 
Q 2300 781 2944 781 
Q 3303 781 3628 887 
Q 3953 994 4288 1222 
L 4288 256 
z
" transform="scale(0.015625)"/>
       <path id="DejaVuSans-Bold-6e" d="M 4056 2131 
L 4056 0 
L 2931 0 
L 2931 347 
L 2931 1631 
Q 2931 2084 2911 2256 
Q 2891 2428 2841 2509 
Q 2775 2619 2662 2680 
Q 2550 2741 2406 2741 
Q 2056 2741 1856 2470 
Q 1656 2200 1656 1722 
L 1656 0 
L 538 0 
L 538 3500 
L 1656 3500 
L 1656 2988 
Q 1909 3294 2193 3439 
Q 2478 3584 2822 3584 
Q 3428 3584 3742 3212 
Q 4056 2841 4056 2131 
z
" transform="scale(0.015625)"/>
      </defs>
      <use xlink:href="#DejaVuSans-Bold-43"/>
      <use xlink:href="#DejaVuSans-Bold-6f" x="73.388672"/>
      <use xlink:href="#DejaVuSans-Bold-75" x="142.089844"/>
      <use xlink:href="#DejaVuSans-Bold-6e" x="213.28125"/>
      <use xlink:href="#DejaVuSans-Bold-74" x="284.472656"/>
     </g>
    </g>
   </g>
   <g id="line2d_16">
    <path d="M 821.176934 640.8 
L 821.176934 86.4 
" clip-path="url(#p52cc32056f)" style="fill: none; stroke-dasharray: 11.1,4.8; stroke-dashoffset: 0; stroke: #f0b6ab; stroke-width: 3"/>
   </g>
   <g id="line2d_17">
    <path d="M 1054.268971 640.8 
L 1054.268971 86.4 
" clip-path="url(#p52cc32056f)" style="fill: none; stroke-dasharray: 11.1,4.8; stroke-dashoffset: 0; stroke: #f0b6ab; stroke-width: 3"/>
   </g>
   <g id="patch_153">
    <path d="M 162 640.8 
L 162 86.4 
" style="fill: none; stroke: #000000; stroke-width: 0.8; stroke-linejoin: miter; stroke-linecap: square"/>
   </g>
   <g id="patch_154">
    <path d="M 1166.4 640.8 
L 1166.4 86.4 
" style="fill: none; stroke: #000000; stroke-width: 0.8; stroke-linejoin: miter; stroke-linecap: square"/>
   </g>
   <g id="patch_155">
    <path d="M 162 640.8 
L 1166.4 640.8 
" style="fill: none; stroke: #000000; stroke-width: 0.8; stroke-linejoin: miter; stroke-linecap: square"/>
   </g>
   <g id="patch_156">
    <path d="M 162 86.4 
L 1166.4 86.4 
" style="fill: none; stroke: #000000; stroke-width: 0.8; stroke-linejoin: miter; stroke-linecap: square"/>
   </g>
   <g id="text_18">
    <!-- Histogram of White Pixels in the Whole Data Set -->
    <g transform="translate(417.567656 80.4) scale(0.18 -0.18)">
     <defs>
      <path id="DejaVuSans-Bold-48" d="M 588 4666 
L 1791 4666 
L 1791 2888 
L 3566 2888 
L 3566 4666 
L 4769 4666 
L 4769 0 
L 3566 0 
L 3566 1978 
L 1791 1978 
L 1791 0 
L 588 0 
L 588 4666 
z
" transform="scale(0.015625)"/>
      <path id="DejaVuSans-Bold-67" d="M 2919 594 
Q 2688 288 2409 144 
Q 2131 0 1766 0 
Q 1125 0 706 504 
Q 288 1009 288 1791 
Q 288 2575 706 3076 
Q 1125 3578 1766 3578 
Q 2131 3578 2409 3434 
Q 2688 3291 2919 2981 
L 2919 3500 
L 4044 3500 
L 4044 353 
Q 4044 -491 3511 -936 
Q 2978 -1381 1966 -1381 
Q 1638 -1381 1331 -1331 
Q 1025 -1281 716 -1178 
L 716 -306 
Q 1009 -475 1290 -558 
Q 1572 -641 1856 -641 
Q 2406 -641 2662 -400 
Q 2919 -159 2919 353 
L 2919 594 
z
M 2181 2772 
Q 1834 2772 1640 2515 
Q 1447 2259 1447 1791 
Q 1447 1309 1634 1061 
Q 1822 813 2181 813 
Q 2531 813 2725 1069 
Q 2919 1325 2919 1791 
Q 2919 2259 2725 2515 
Q 2531 2772 2181 2772 
z
" transform="scale(0.015625)"/>
      <path id="DejaVuSans-Bold-61" d="M 2106 1575 
Q 1756 1575 1579 1456 
Q 1403 1338 1403 1106 
Q 1403 894 1545 773 
Q 1688 653 1941 653 
Q 2256 653 2472 879 
Q 2688 1106 2688 1447 
L 2688 1575 
L 2106 1575 
z
M 3816 1997 
L 3816 0 
L 2688 0 
L 2688 519 
Q 2463 200 2181 54 
Q 1900 -91 1497 -91 
Q 953 -91 614 226 
Q 275 544 275 1050 
Q 275 1666 698 1953 
Q 1122 2241 2028 2241 
L 2688 2241 
L 2688 2328 
Q 2688 2594 2478 2717 
Q 2269 2841 1825 2841 
Q 1466 2841 1156 2769 
Q 847 2697 581 2553 
L 581 3406 
Q 941 3494 1303 3539 
Q 1666 3584 2028 3584 
Q 2975 3584 3395 3211 
Q 3816 2838 3816 1997 
z
" transform="scale(0.015625)"/>
      <path id="DejaVuSans-Bold-44" d="M 1791 3756 
L 1791 909 
L 2222 909 
Q 2959 909 3348 1275 
Q 3738 1641 3738 2338 
Q 3738 3031 3350 3393 
Q 2963 3756 2222 3756 
L 1791 3756 
z
M 588 4666 
L 1856 4666 
Q 2919 4666 3439 4514 
Q 3959 4363 4331 4000 
Q 4659 3684 4818 3271 
Q 4978 2859 4978 2338 
Q 4978 1809 4818 1395 
Q 4659 981 4331 666 
Q 3956 303 3431 151 
Q 2906 0 1856 0 
L 588 0 
L 588 4666 
z
" transform="scale(0.015625)"/>
      <path id="DejaVuSans-Bold-53" d="M 3834 4519 
L 3834 3531 
Q 3450 3703 3084 3790 
Q 2719 3878 2394 3878 
Q 1963 3878 1756 3759 
Q 1550 3641 1550 3391 
Q 1550 3203 1689 3098 
Q 1828 2994 2194 2919 
L 2706 2816 
Q 3484 2659 3812 2340 
Q 4141 2022 4141 1434 
Q 4141 663 3683 286 
Q 3225 -91 2284 -91 
Q 1841 -91 1394 -6 
Q 947 78 500 244 
L 500 1259 
Q 947 1022 1364 901 
Q 1781 781 2169 781 
Q 2563 781 2772 912 
Q 2981 1044 2981 1288 
Q 2981 1506 2839 1625 
Q 2697 1744 2272 1838 
L 1806 1941 
Q 1106 2091 782 2419 
Q 459 2747 459 3303 
Q 459 4000 909 4375 
Q 1359 4750 2203 4750 
Q 2588 4750 2994 4692 
Q 3400 4634 3834 4519 
z
" transform="scale(0.015625)"/>
     </defs>
     <use xlink:href="#DejaVuSans-Bold-48"/>
     <use xlink:href="#DejaVuSans-Bold-69" x="83.691406"/>
     <use xlink:href="#DejaVuSans-Bold-73" x="117.96875"/>
     <use xlink:href="#DejaVuSans-Bold-74" x="177.490234"/>
     <use xlink:href="#DejaVuSans-Bold-6f" x="225.292969"/>
     <use xlink:href="#DejaVuSans-Bold-67" x="293.994141"/>
     <use xlink:href="#DejaVuSans-Bold-72" x="365.576172"/>
     <use xlink:href="#DejaVuSans-Bold-61" x="414.892578"/>
     <use xlink:href="#DejaVuSans-Bold-6d" x="482.373047"/>
     <use xlink:href="#DejaVuSans-Bold-20" x="586.572266"/>
     <use xlink:href="#DejaVuSans-Bold-6f" x="621.386719"/>
     <use xlink:href="#DejaVuSans-Bold-66" x="690.087891"/>
     <use xlink:href="#DejaVuSans-Bold-20" x="733.59375"/>
     <use xlink:href="#DejaVuSans-Bold-57" x="768.408203"/>
     <use xlink:href="#DejaVuSans-Bold-68" x="878.710938"/>
     <use xlink:href="#DejaVuSans-Bold-69" x="949.902344"/>
     <use xlink:href="#DejaVuSans-Bold-74" x="984.179688"/>
     <use xlink:href="#DejaVuSans-Bold-65" x="1031.982422"/>
     <use xlink:href="#DejaVuSans-Bold-20" x="1099.804688"/>
     <use xlink:href="#DejaVuSans-Bold-50" x="1134.619141"/>
     <use xlink:href="#DejaVuSans-Bold-69" x="1207.910156"/>
     <use xlink:href="#DejaVuSans-Bold-78" x="1242.1875"/>
     <use xlink:href="#DejaVuSans-Bold-65" x="1306.689453"/>
     <use xlink:href="#DejaVuSans-Bold-6c" x="1374.511719"/>
     <use xlink:href="#DejaVuSans-Bold-73" x="1408.789062"/>
     <use xlink:href="#DejaVuSans-Bold-20" x="1468.310547"/>
     <use xlink:href="#DejaVuSans-Bold-69" x="1503.125"/>
     <use xlink:href="#DejaVuSans-Bold-6e" x="1537.402344"/>
     <use xlink:href="#DejaVuSans-Bold-20" x="1608.59375"/>
     <use xlink:href="#DejaVuSans-Bold-74" x="1643.408203"/>
     <use xlink:href="#DejaVuSans-Bold-68" x="1691.210938"/>
     <use xlink:href="#DejaVuSans-Bold-65" x="1762.402344"/>
     <use xlink:href="#DejaVuSans-Bold-20" x="1830.224609"/>
     <use xlink:href="#DejaVuSans-Bold-57" x="1865.039062"/>
     <use xlink:href="#DejaVuSans-Bold-68" x="1975.341797"/>
     <use xlink:href="#DejaVuSans-Bold-6f" x="2046.533203"/>
     <use xlink:href="#DejaVuSans-Bold-6c" x="2115.234375"/>
     <use xlink:href="#DejaVuSans-Bold-65" x="2149.511719"/>
     <use xlink:href="#DejaVuSans-Bold-20" x="2217.333984"/>
     <use xlink:href="#DejaVuSans-Bold-44" x="2252.148438"/>
     <use xlink:href="#DejaVuSans-Bold-61" x="2335.15625"/>
     <use xlink:href="#DejaVuSans-Bold-74" x="2402.636719"/>
     <use xlink:href="#DejaVuSans-Bold-61" x="2450.439453"/>
     <use xlink:href="#DejaVuSans-Bold-20" x="2517.919922"/>
     <use xlink:href="#DejaVuSans-Bold-53" x="2552.734375"/>
     <use xlink:href="#DejaVuSans-Bold-65" x="2624.755859"/>
     <use xlink:href="#DejaVuSans-Bold-74" x="2692.578125"/>
    </g>
   </g>
  </g>
 </g>
 <defs>
  <clipPath id="p52cc32056f">
   <rect x="162" y="86.4" width="1004.4" height="554.4"/>
  </clipPath>
 </defs>
</svg>
